<svg width="20" height="22" viewBox="0 0 20 22" fill="none" xmlns="http://www.w3.org/2000/svg">
<path d="M0.25 12.0834C0.25 14.6693 1.27723 17.1492 3.10571 18.9777C4.93419 20.8062 7.41414 21.8334 10 21.8334C10 19.2476 8.97277 16.7676 7.14429 14.9391C5.31581 13.1106 2.83586 12.0834 0.25 12.0834ZM2.89333 14.7267C4.9625 15.4959 6.5875 17.1209 7.35667 19.1901C6.33531 18.8112 5.40778 18.2162 4.63747 17.4459C3.86716 16.6756 3.27223 15.7481 2.89333 14.7267ZM10 21.8334C12.5859 21.8334 15.0658 20.8062 16.8943 18.9777C18.7228 17.1492 19.75 14.6693 19.75 12.0834C17.1641 12.0834 14.6842 13.1106 12.8557 14.9391C11.0272 16.7676 10 19.2476 10 21.8334ZM12.6217 19.2009C12.9929 18.1662 13.5885 17.2265 14.3658 16.4492C15.1431 15.6719 16.0828 15.0763 17.1175 14.7051C16.7363 15.7341 16.1372 16.6686 15.3612 17.4446C14.5852 18.2206 13.6507 18.8197 12.6217 19.2009ZM10 13.1667C11.7239 13.1667 13.3772 12.4819 14.5962 11.2629C15.8152 10.044 16.5 8.39066 16.5 6.66675V1.25008C15.7004 1.24331 14.9067 1.38662 14.16 1.67258C13.5642 1.92175 13.0333 2.29008 12.5892 2.75591L10 0.166748L7.41083 2.75591C6.96667 2.29008 6.43583 1.92175 5.84 1.67258C5.09329 1.38662 4.29956 1.24331 3.5 1.25008V6.66675C3.5 8.39066 4.18482 10.044 5.40381 11.2629C6.62279 12.4819 8.27609 13.1667 10 13.1667ZM5.66667 4.07758L7.3675 5.86508L10 3.23258L12.6325 5.86508L14.3333 4.07758V6.66675C14.3333 7.81602 13.8768 8.91822 13.0641 9.73088C12.2515 10.5435 11.1493 11.0001 10 11.0001C8.85073 11.0001 7.74853 10.5435 6.93587 9.73088C6.12321 8.91822 5.66667 7.81602 5.66667 6.66675V4.07758Z" fill="#6F8EFF"/>
</svg>
