<?xml version="1.0" standalone="no"?>
<!DOCTYPE svg PUBLIC "-//W3C//DTD SVG 20010904//EN"
 "http://www.w3.org/TR/2001/REC-SVG-20010904/DTD/svg10.dtd">
<svg version="1.0" xmlns="http://www.w3.org/2000/svg"
 width="370.000000pt" height="370.000000pt" viewBox="0 0 370.000000 370.000000"
 preserveAspectRatio="xMidYMid meet">

<g transform="translate(0.000000,370.000000) scale(0.100000,-0.100000)"
fill="#000000" stroke="none">
<path d="M1650 3690 c-430 -53 -805 -234 -1106 -534 -725 -726 -725 -1886 0
-2612 207 -206 444 -354 713 -444 677 -226 1396 -58 1899 444 204 205 350 437
442 707 231 670 61 1400 -442 1905 -269 269 -616 451 -984 515 -134 23 -404
33 -522 19z m335 -121 c529 -45 996 -317 1293 -752 395 -578 395 -1339 1
-1934 -101 -150 -312 -362 -463 -462 -449 -298 -987 -375 -1491 -214 -447 143
-827 474 -1030 897 -266 555 -219 1194 126 1712 102 152 313 363 463 463 250
166 527 264 816 290 136 12 152 12 285 0z"/>
<path d="M2003 2939 c-129 -22 -283 -111 -366 -214 -56 -69 -109 -176 -128
-255 -17 -72 -17 -211 0 -280 33 -139 127 -279 239 -358 l69 -48 -82 -32
c-227 -90 -440 -300 -534 -527 -44 -104 -69 -208 -77 -315 -6 -79 -5 -93 11
-110 25 -27 71 -26 89 2 7 13 16 61 19 108 25 355 287 672 637 769 43 13 132
25 210 31 151 10 214 26 311 76 213 112 342 342 326 583 -24 365 -361 631
-724 570z m232 -124 c88 -23 167 -70 233 -139 96 -100 142 -212 142 -346 0
-134 -46 -246 -142 -346 -257 -268 -707 -169 -828 182 -64 183 -19 377 119
515 128 127 307 178 476 134z"/>
<path d="M1301 2804 c-84 -22 -150 -63 -222 -135 -44 -44 -78 -89 -98 -133
-107 -223 -67 -461 106 -635 40 -41 72 -74 71 -75 -2 -1 -38 -19 -81 -40 -185
-93 -331 -264 -403 -474 -39 -115 -62 -277 -44 -311 15 -29 49 -41 78 -28 25
12 28 22 37 127 8 99 55 238 111 327 25 40 78 103 123 145 118 111 242 166
414 183 57 6 70 10 84 32 15 22 15 28 2 51 -12 22 -26 28 -92 39 -94 16 -164
50 -221 107 -170 169 -167 447 5 611 68 65 128 94 207 102 92 9 131 48 98 98
-14 22 -24 25 -69 24 -28 0 -76 -7 -106 -15z"/>
<path d="M2726 1528 c-9 -12 -16 -28 -16 -34 0 -7 29 -47 65 -90 73 -88 142
-214 173 -316 12 -37 26 -115 33 -175 12 -114 21 -133 65 -133 39 0 54 26 54
93 0 208 -98 454 -243 613 -66 72 -102 83 -131 42z"/>
</g>
</svg>
