<?xml version="1.0" standalone="no"?>
<!DOCTYPE svg PUBLIC "-//W3C//DTD SVG 20010904//EN"
 "http://www.w3.org/TR/2001/REC-SVG-20010904/DTD/svg10.dtd">

<svg version="1.0" xmlns="http://www.w3.org/2000/svg"
 width="2906.000000pt" height="2625.000000pt" viewBox="0 0 2906.000000 2625.000000"
 preserveAspectRatio="xMidYMid meet">

<g transform="translate(0.000000,2625.000000) scale(0.100000,-0.100000)"
fill="#000000" stroke="">
<path d="M14220 25149 c-1987 -69 -3898 -691 -5565 -1813 -236 -159 -604 -436
-835 -628 -2060 -1718 -3387 -4139 -3724 -6793 -61 -481 -80 -792 -80 -1325 0
-433 8 -628 40 -975 191 -2075 987 -4039 2296 -5667 397 -494 866 -978 1358
-1399 1634 -1401 3688 -2278 5830 -2488 348 -35 491 -42 895 -48 490 -7 900
12 1335 62 2067 237 4003 1064 5590 2389 1655 1382 2853 3244 3420 5316 198
725 305 1369 362 2180 27 389 14 1123 -28 1575 -279 3025 -1831 5770 -4279
7570 -1087 800 -2381 1408 -3690 1734 -744 185 -1449 283 -2240 311 -305 11
-363 11 -685 -1z m695 -729 c721 -27 1380 -119 2048 -286 1547 -386 2968
-1136 4172 -2202 172 -153 651 -632 801 -802 970 -1099 1663 -2341 2079 -3725
213 -710 337 -1404 397 -2220 16 -223 16 -979 0 -1200 -29 -391 -61 -669 -113
-985 -304 -1847 -1118 -3555 -2368 -4965 -275 -310 -714 -734 -1056 -1020
-1528 -1275 -3443 -2064 -5440 -2240 -408 -36 -962 -46 -1350 -25 -1768 97
-3428 639 -4905 1605 -755 493 -1516 1165 -2090 1845 -712 843 -1247 1733
-1650 2740 -611 1529 -828 3216 -624 4850 251 2015 1100 3872 2462 5388 287
319 728 740 1067 1017 1849 1513 4212 2313 6570 2225z"/>
<path d="M14340 22070 c-564 -103 -999 -533 -1116 -1102 -12 -60 -19 -158 -23
-356 l-6 -274 -130 -47 c-1074 -394 -1947 -1172 -2456 -2191 -258 -517 -410
-1060 -459 -1645 -6 -76 -10 -983 -10 -2483 l0 -2362 -625 -1250 -625 -1250
1659 0 1658 0 17 -87 c75 -388 262 -785 509 -1081 87 -103 294 -304 387 -373
356 -266 728 -419 1170 -480 121 -17 468 -17 585 -1 578 82 1045 316 1435 718
249 257 430 553 549 897 33 97 63 214 96 374 l7 33 1654 0 c1098 0 1654 3
1654 10 0 6 -279 568 -620 1250 l-620 1240 0 2362 c0 1511 -4 2406 -10 2483
-67 784 -323 1514 -758 2155 -523 771 -1278 1360 -2157 1681 l-130 47 -6 274
c-4 198 -11 296 -23 356 -100 487 -436 880 -891 1042 -160 56 -243 71 -435 75
-143 4 -194 1 -280 -15z m400 -726 c180 -42 340 -169 426 -338 56 -109 74
-197 74 -359 l0 -139 -32 6 c-163 30 -322 40 -623 40 -301 0 -460 -10 -622
-40 l-33 -6 0 139 c0 160 19 254 71 356 84 166 250 299 425 341 79 19 234 19
314 0z m330 -1543 c701 -99 1287 -351 1849 -792 133 -105 431 -400 543 -539
390 -482 651 -1035 768 -1623 69 -351 64 -116 70 -2902 l5 -2520 398 -792 397
-793 -4515 0 -4515 0 397 793 398 792 5 2520 c6 2727 3 2541 56 2835 112 613
380 1194 782 1690 113 139 400 424 537 534 602 479 1284 750 2065 820 25 2
173 2 330 1 219 -3 318 -8 430 -24z m1144 -10718 c-4 -16 -22 -75 -41 -133
-175 -534 -622 -953 -1167 -1094 -772 -201 -1570 168 -1926 889 -43 88 -104
252 -124 338 l-6 27 1635 0 1635 0 -6 -27z"/>
</g>
</svg>


