<svg width="55" height="46" viewBox="0 0 55 46" fill="none" xmlns="http://www.w3.org/2000/svg">
<path d="M49.3113 7.04447H40.7573L38.7194 1.33342C38.5786 0.942626 38.3206 0.604829 37.9807 0.366172C37.6407 0.127514 37.2353 -0.00036645 36.8199 7.88747e-07H17.5231C16.674 7.88747e-07 15.913 0.534626 15.6299 1.33342L13.5858 7.04447H5.03177C2.25171 7.04447 0 9.29619 0 12.0762V40.7573C0 43.5373 2.25171 45.7891 5.03177 45.7891H49.3113C52.0913 45.7891 54.3431 43.5373 54.3431 40.7573V12.0762C54.3431 9.29619 52.0913 7.04447 49.3113 7.04447ZM49.8145 40.7573C49.8145 41.034 49.588 41.2605 49.3113 41.2605H5.03177C4.75502 41.2605 4.52859 41.034 4.52859 40.7573V12.0762C4.52859 11.7995 4.75502 11.5731 5.03177 11.5731H16.7746L17.8502 8.56658L19.2905 4.52859H35.0462L36.4866 8.56658L37.5621 11.5731H49.3113C49.588 11.5731 49.8145 11.7995 49.8145 12.0762V40.7573ZM27.1715 15.5985C21.6114 15.5985 17.108 20.1019 17.108 25.662C17.108 31.2221 21.6114 35.7255 27.1715 35.7255C32.7316 35.7255 37.2351 31.2221 37.2351 25.662C37.2351 20.1019 32.7316 15.5985 27.1715 15.5985ZM27.1715 31.7001C23.838 31.7001 21.1334 28.9955 21.1334 25.662C21.1334 22.3285 23.838 19.6239 27.1715 19.6239C30.5051 19.6239 33.2096 22.3285 33.2096 25.662C33.2096 28.9955 30.5051 31.7001 27.1715 31.7001Z" fill="white"/>
</svg>
