<?xml version="1.0" encoding="UTF-8"?>
<!-- Svg Vector Icons : http://www.onlinewebfonts.com/icon -->
<!DOCTYPE svg PUBLIC "-//W3C//DTD SVG 1.1//EN" "http://www.w3.org/Graphics/SVG/1.1/DTD/svg11.dtd">
<svg version="1.1" xmlns="http://www.w3.org/2000/svg" xmlns:xlink="http://www.w3.org/1999/xlink" x="0px" y="0px" viewBox="0 0 1000 1000" enable-background="new 0 0 1000 1000" xml:space="preserve">
<metadata> Svg Vector Icons : http://www.onlinewebfonts.com/icon </metadata>
<g><path d="M500,4.4C229.4,4.4,10,226.3,10,500c0,273.7,219.4,495.6,490,495.6S990,773.7,990,500C990,226.3,770.6,4.4,500,4.4z M822.4,826.7c-41.9,42.4-90.7,75.7-145,98.9c-56.2,24-115.9,36.2-177.4,36.2c-61.5,0-121.2-12.2-177.4-36.2c-54.3-23.2-103.1-56.5-145-98.9c-41.9-42.4-74.9-91.8-97.9-146.8C55.9,622.9,43.8,562.4,43.8,500c0-62.4,12.1-122.9,35.9-179.9c23-55,55.9-104.4,97.9-146.8c41.9-42.4,90.7-75.7,145-98.9c56.2-24,115.9-36.2,177.4-36.2s121.2,12.2,177.4,36.2c54.3,23.2,103.1,56.5,145,98.9c41.9,42.4,74.9,91.8,97.9,146.8c23.8,56.9,35.9,117.5,35.9,179.9c0,62.4-12.1,122.9-35.9,179.9C897.3,734.9,864.4,784.3,822.4,826.7z M809.4,744.9c-0.1-0.3-0.1-0.6-0.2-0.8c0-0.1,0-0.2-0.1-0.3c-15.7-81.9-62.1-152.8-131-199.9c-29.6-20.3-61.9-35-95.6-44.1c56.1-31.8,94-92.1,94-161c0-102-83-185-185-185c-102,0-185,83-185,185c0,71.7,41,134,100.8,164.7c-49.2,15.3-93.6,42.4-130.1,79.5c-43.6,44.5-72.8,100.1-84.4,161c-0.4,1.4-0.6,2.8-0.6,4.4c0,9.3,7.6,16.9,16.9,16.9c8.1,0,14.9-5.8,16.6-13.4l0.1,0C247,639,336.8,549,449.6,527.8c11.3-2.1,22.6-3.5,33.9-4.3c2.7,0.1,5.5,0.2,8.2,0.2c5.4,0,10.8-0.2,16.1-0.7c53.7,1.2,105.9,17.8,151.3,48.8c61.6,42.1,103.1,105.6,116.9,178.8c0,0,0,0,0,0.1c0,0.1,0,0.2,0.1,0.4l0,0c1.7,7.5,8.4,13.1,16.5,13.1c9.3,0,16.9-7.6,16.9-16.9C809.5,746.5,809.5,745.7,809.4,744.9L809.4,744.9z M340.6,338.8c0-83.3,67.8-151.1,151.1-151.1c83.3,0,151.1,67.8,151.1,151.1c0,78.3-59.8,142.8-136.1,150.4c-7.8-0.1-15.7,0-23.5,0.5C403.8,485.3,340.6,419.3,340.6,338.8z"/></g>
</svg>